<?xml version="1.0" standalone="no"?>
<!DOCTYPE svg PUBLIC "-//W3C//DTD SVG 20010904//EN"
 "http://www.w3.org/TR/2001/REC-SVG-20010904/DTD/svg10.dtd">
<svg version="1.0" xmlns="http://www.w3.org/2000/svg"
 width="500.000000pt" height="500.000000pt" viewBox="0 0 500.000000 500.000000"
 preserveAspectRatio="xMidYMid meet">

<g transform="translate(0.000000,500.000000) scale(0.100000,-0.100000)"
fill="#333" stroke="none">
<path d="M897 4733 c-28 -7 -37 -45 -37 -153 0 -81 3 -102 19 -121 l19 -24
429 -3 c456 -3 498 0 508 41 3 12 5 71 3 132 -3 105 -4 110 -28 122 -19 10
-128 12 -460 12 -239 -1 -443 -3 -453 -6z"/>
<path d="M3341 4718 c-22 -23 -31 -45 -89 -213 l-37 -110 -190 -3 c-236 -3
-225 5 -225 -153 0 -151 -3 -149 179 -149 l138 0 -160 -490 -161 -490 21 -27
c20 -28 20 -28 162 -31 138 -2 142 -2 165 22 18 18 66 150 188 520 l163 496
40 0 40 0 0 -116 c0 -103 2 -117 19 -130 29 -20 793 -21 821 0 15 11 19 30 23
99 2 47 1 102 -2 121 -13 68 -2 66 -362 66 l-324 0 0 114 c0 139 -4 146 -91
146 -32 0 -59 3 -59 7 0 3 23 76 51 161 39 121 48 157 38 168 -9 11 -45 14
-170 14 -149 0 -159 -1 -178 -22z"/>
<path d="M639 4231 c-23 -18 -24 -25 -24 -134 0 -82 4 -119 14 -130 12 -15 61
-17 517 -17 304 0 513 -4 529 -10 l25 -10 -2 -282 -3 -283 -440 -5 c-242 -3
-448 -9 -458 -14 -24 -12 -28 -36 -25 -161 3 -105 4 -110 28 -122 20 -11 135
-13 545 -10 467 2 525 4 566 20 66 26 114 70 146 135 l28 57 0 385 c0 381 0
386 -23 435 -26 57 -64 100 -107 122 -77 41 -109 43 -711 43 -558 0 -583 -1
-605 -19z"/>
<path d="M3462 3604 c-21 -15 -22 -20 -22 -202 0 -212 8 -253 56 -299 53 -49
91 -53 549 -53 363 0 416 2 429 16 13 12 16 40 16 137 0 67 -5 129 -10 137 -8
13 -56 15 -317 18 -196 2 -312 7 -320 13 -8 7 -13 47 -15 117 -3 102 -4 107
-28 119 -39 20 -309 18 -338 -3z"/>
<path d="M720 2544 c0 -92 1 -97 29 -125 39 -39 106 -41 148 -5 27 23 28 29
31 125 4 97 3 101 -17 101 -20 0 -21 -5 -21 -93 0 -110 -10 -131 -64 -131 -58
0 -69 20 -74 129 -3 72 -8 95 -18 95 -11 0 -14 -21 -14 -96z"/>
<path d="M1260 2625 c0 -11 11 -15 40 -15 l40 0 0 -110 c0 -103 1 -110 20
-110 19 0 20 7 20 110 l0 110 40 0 c29 0 40 4 40 15 0 12 -18 15 -100 15 -82
0 -100 -3 -100 -15z"/>
<path d="M1812 2516 c-44 -111 -48 -126 -32 -126 12 0 22 12 30 35 11 35 12
35 71 35 58 0 59 -1 73 -35 8 -19 22 -35 30 -35 9 0 16 1 16 3 0 2 -22 57 -48
123 -66 164 -73 164 -140 0z m76 -24 c-22 -2 -42 -1 -45 2 -3 3 5 31 17 62
l23 56 22 -58 22 -59 -39 -3z"/>
<path d="M2328 2633 c0 -4 -2 -61 -3 -125 -1 -107 0 -118 16 -118 16 0 18 9
14 101 -2 56 0 98 4 93 4 -5 23 -51 42 -101 18 -51 39 -93 45 -93 7 0 31 46
53 103 l40 102 0 -102 c1 -85 4 -103 16 -103 13 0 15 21 15 125 0 123 0 125
-23 125 -19 0 -27 -12 -51 -77 -16 -43 -33 -89 -38 -103 -9 -23 -13 -15 -48
75 -30 79 -42 101 -59 103 -12 2 -22 0 -23 -5z"/>
<path d="M2920 2515 l0 -125 100 0 c82 0 100 3 100 15 0 12 -16 15 -86 15
l-85 0 3 43 3 42 73 3 c39 2 72 7 72 12 0 5 -33 10 -72 12 l-73 3 -3 38 -3 37
80 0 c65 0 81 3 81 15 0 12 -17 15 -95 15 l-95 0 0 -125z"/>
<path d="M3453 2518 c3 -99 6 -123 18 -123 11 0 14 19 13 98 -1 54 2 95 6 90
4 -4 22 -50 41 -100 18 -51 39 -93 45 -93 7 0 31 46 53 103 l40 102 0 -102 c1
-85 4 -103 16 -103 13 0 15 21 15 125 0 123 0 125 -23 125 -19 0 -27 -12 -51
-77 -16 -43 -33 -89 -38 -103 -9 -23 -13 -15 -48 75 -33 88 -41 100 -64 103
l-26 3 3 -123z"/>
<path d="M4073 2605 c-34 -34 -35 -37 -31 -97 4 -53 9 -65 36 -89 56 -50 166
-34 190 28 21 55 23 73 12 113 -14 53 -56 80 -123 80 -43 0 -54 -5 -84 -35z
m155 -21 c45 -51 20 -152 -43 -168 -42 -11 -91 17 -105 59 -20 61 0 119 50
138 28 11 75 -3 98 -29z"/>
<path d="M849 2034 c-12 -15 -5 -82 28 -255 5 -26 4 -26 -69 -32 -140 -11
-225 -61 -269 -159 l-24 -53 0 -480 0 -480 24 -53 c29 -64 86 -115 155 -139
43 -15 86 -18 286 -18 233 0 236 0 285 25 32 17 61 42 80 70 17 25 110 256
210 518 l180 474 34 -6 c19 -3 38 -11 43 -18 4 -7 7 -179 5 -383 l-2 -370
-127 -5 c-165 -7 -162 -4 -166 -150 -4 -106 -3 -110 22 -135 25 -25 26 -25
195 -25 94 0 194 5 223 11 74 16 142 55 173 99 55 80 58 102 63 528 2 253 0
422 -7 475 -24 180 -97 250 -285 275 l-54 7 42 111 c56 144 57 151 39 170 -13
13 -42 15 -174 12 -145 -3 -159 -5 -173 -23 -8 -11 -36 -77 -62 -147 l-48
-128 -128 0 c-124 0 -128 1 -132 23 -3 12 -12 63 -21 112 -20 115 -32 152 -51
159 -9 3 -75 6 -149 6 -109 0 -135 -3 -146 -16z m151 -977 l66 -382 -79 -3
c-50 -2 -84 2 -93 9 -12 9 -14 75 -14 375 0 362 0 363 22 378 12 9 24 13 27
10 3 -3 35 -177 71 -387z m354 371 c-28 -89 -52 -140 -57 -122 -5 16 -27 132
-27 141 0 2 21 3 46 3 42 0 45 -1 38 -22z"/>
<path d="M3157 2043 c-33 -8 -47 -56 -47 -156 l0 -94 -85 -5 c-118 -6 -120 -8
-120 -154 0 -110 1 -117 24 -135 18 -15 39 -19 102 -19 l79 0 0 -80 0 -80 -82
0 c-46 0 -89 -4 -96 -8 -30 -20 -44 -184 -21 -250 13 -37 53 -52 142 -52 l57
0 0 -188 c0 -286 26 -356 154 -422 l69 -35 406 0 c371 0 411 2 460 19 69 24
122 72 152 139 23 51 24 60 27 364 4 388 22 353 -184 353 -147 0 -175 -5 -190
-37 -5 -10 -11 -133 -14 -273 l-5 -255 -229 -3 c-160 -2 -233 1 -242 9 -11 9
-14 48 -14 169 l0 158 191 4 c238 4 229 -3 229 159 0 156 10 149 -230 149
l-190 0 0 79 0 80 196 3 c180 3 197 5 210 22 16 22 20 231 6 254 -16 24 -78
32 -244 32 l-168 0 0 99 c0 55 -3 107 -6 116 -14 35 -58 45 -191 44 -70 -1
-136 -3 -146 -6z"/>
</g>
</svg>
